<svg version="1.1" id="Layer_1" xmlns="http://www.w3.org/2000/svg" xmlns:xlink="http://www.w3.org/1999/xlink" x="0px" y="0px"
	 width="100%" viewBox="0 0 352 128" enable-background="new 0 0 352 128" xml:space="preserve">
<path fill="#FFFFFF" opacity="1.000000" stroke="none" 
	d="
M276.000000,129.000000 
	C184.000015,129.000000 92.500023,129.000000 1.000025,129.000000 
	C1.000016,86.333351 1.000016,43.666698 1.000008,1.000036 
	C118.333305,1.000024 235.666611,1.000024 352.999939,1.000012 
	C352.999939,43.666630 352.999939,86.333260 352.999969,128.999939 
	C327.500000,129.000000 302.000000,129.000000 276.000000,129.000000 
M331.080383,7.996261 
	C222.750687,7.996261 114.421005,7.996261 6.315217,7.996261 
	C6.315217,40.565132 6.315217,72.452431 6.315217,104.992851 
	C11.767323,104.992851 16.895201,104.992851 21.816559,105.909805 
	C21.816559,111.023956 21.816559,116.138115 21.816559,121.410812 
	C129.651306,121.410812 236.987778,121.410812 344.560303,121.410812 
	C344.560303,89.239426 344.560303,57.348854 344.560303,24.906998 
	C340.599670,24.906998 336.816711,24.906998 332.983002,23.986227 
	C332.927917,18.989922 332.872864,13.993614 332.928802,8.462855 
	C332.621338,8.360664 332.313873,8.258473 331.080383,7.996261 
z"/>
<path fill="#060606" opacity="1.000000" stroke="none" 
	d="
M333.033783,24.906998 
	C336.816711,24.906998 340.599670,24.906998 344.560303,24.906998 
	C344.560303,57.348854 344.560303,89.239426 344.560303,121.410812 
	C236.987778,121.410812 129.651306,121.410812 21.816559,121.410812 
	C21.816559,116.138115 21.816559,111.023956 22.106457,105.463745 
	C22.396353,105.017685 22.769411,105.045593 23.260187,105.017700 
	C124.920853,104.983261 226.090729,104.981392 327.260590,104.934288 
	C329.154938,104.933403 331.048981,104.396004 332.961121,103.631248 
	C332.986115,77.435013 332.993225,51.716457 333.007477,25.725140 
	C333.020996,25.270584 333.027374,25.088791 333.033783,24.906998 
z"/>
<path fill="#070707" opacity="1.000000" stroke="none" 
	d="
M22.769411,105.045593 
	C22.769411,105.045593 22.396353,105.017685 22.209715,105.005264 
	C16.895201,104.992851 11.767323,104.992851 6.315217,104.992851 
	C6.315217,72.452431 6.315217,40.565132 6.315217,7.996261 
	C114.421005,7.996261 222.750687,7.996261 331.635468,8.254443 
	C332.350128,8.738267 332.559204,8.899828 332.817810,8.997308 
	C332.872864,13.993614 332.927917,18.989922 333.008392,24.446613 
	C333.027374,25.088791 333.020996,25.270584 332.710510,26.019241 
	C332.272949,28.394514 332.025940,30.202759 332.023285,32.011364 
	C331.987946,55.968437 331.986938,79.925560 331.512939,103.937469 
	C230.337830,104.005844 129.627106,104.013451 28.916403,104.075211 
	C26.867207,104.076469 24.818399,104.708069 22.769411,105.045593 
M127.499939,100.820641 
	C194.566513,100.820641 261.633087,100.820641 328.670776,100.820641 
	C328.670776,70.817635 328.670776,41.419086 328.670776,12.124002 
	C222.337601,12.124002 116.308800,12.124002 10.314783,12.124002 
	C10.314783,41.784000 10.314783,71.166649 10.314783,100.477623 
	C10.941404,100.638107 11.249630,100.786064 11.557926,100.786209 
	C49.871925,100.804764 88.185928,100.812416 127.499939,100.820641 
z"/>
<path fill="#121212" opacity="1.000000" stroke="none" 
	d="
M332.873291,8.730082 
	C332.559204,8.899828 332.350128,8.738267 332.098480,8.334454 
	C332.313873,8.258473 332.621338,8.360664 332.873291,8.730082 
z"/>
<path fill="#515151" opacity="1.000000" stroke="none" 
	d="
M23.260187,105.017700 
	C24.818399,104.708069 26.867207,104.076469 28.916403,104.075211 
	C129.627106,104.013451 230.337830,104.005844 331.755310,103.990593 
	C332.462067,103.988922 332.943176,104.108932 332.943176,104.108932 
	C331.048981,104.396004 329.154938,104.933403 327.260590,104.934288 
	C226.090729,104.981392 124.920853,104.983261 23.260187,105.017700 
z"/>
<path fill="#121212" opacity="1.000000" stroke="none" 
	d="
M332.961121,103.631248 
	C332.943176,104.108932 332.462067,103.988922 332.219696,103.935791 
	C331.986938,79.925560 331.987946,55.968437 332.023285,32.011364 
	C332.025940,30.202759 332.272949,28.394514 332.703339,26.292004 
	C332.993225,51.716457 332.986115,77.435013 332.961121,103.631248 
z"/>
<path fill="#FCFCFC" opacity="1.000000" stroke="none" 
	d="
M126.999939,100.820633 
	C88.185928,100.812416 49.871925,100.804764 11.557926,100.786209 
	C11.249630,100.786064 10.941404,100.638107 10.314783,100.477623 
	C10.314783,71.166649 10.314783,41.784000 10.314783,12.124002 
	C116.308800,12.124002 222.337601,12.124002 328.670776,12.124002 
	C328.670776,41.419086 328.670776,70.817635 328.670776,100.820641 
	C261.633087,100.820641 194.566513,100.820641 126.999939,100.820633 
M153.129822,30.660105 
	C152.381775,25.495209 148.924667,28.829947 146.298538,27.990377 
	C146.298538,35.546349 146.417679,42.518772 146.204727,49.481041 
	C146.158417,50.994610 145.318771,53.244209 144.167267,53.835205 
	C138.457123,56.765823 132.520126,59.254391 125.971817,62.210796 
	C125.971817,50.345692 125.971817,39.160221 125.971817,27.827890 
	C123.503922,27.942825 121.571411,28.032825 119.298798,28.138664 
	C119.298798,36.962566 118.729996,45.474335 119.462410,53.872620 
	C120.163017,61.906189 118.694786,67.730385 109.959015,69.683769 
	C109.716408,69.738014 109.561546,70.184647 109.234665,70.624863 
	C109.859489,71.787819 110.524261,73.025116 111.220634,74.321251 
	C113.970490,73.179558 116.385933,72.176712 119.347031,70.947311 
	C119.347031,74.820633 119.347031,78.236656 119.347031,81.701935 
	C121.853241,81.701935 123.901611,81.701935 126.130646,81.701935 
	C126.130646,77.744461 126.018692,74.092201 126.196381,70.454086 
	C126.252335,69.308655 126.782852,67.577377 127.610779,67.176155 
	C133.600983,64.273293 139.723114,61.642696 146.526550,58.602810 
	C146.526550,66.998375 146.526550,74.413940 146.526550,81.792900 
	C148.915085,81.792900 150.847092,81.792900 153.130280,81.792900 
	C153.130280,74.120209 153.052811,66.661812 153.197403,59.207710 
	C153.225418,57.763893 153.710861,55.524963 154.682495,55.034794 
	C160.684479,52.006901 166.886032,49.374542 173.763077,46.276569 
	C173.763077,58.702538 173.763077,70.233940 173.763077,81.805283 
	C176.193100,81.805283 178.121002,81.805283 180.413376,81.805283 
	C180.413376,72.300003 180.892532,62.966099 180.262939,53.707588 
	C179.752304,46.198429 181.163315,40.782112 189.357971,39.098606 
	C189.611160,39.046593 189.792145,38.643181 190.124466,38.272247 
	C189.536224,37.008293 188.923279,35.691261 188.183884,34.102562 
	C185.667953,35.189114 183.352371,36.189140 180.413269,37.458447 
	C180.413269,33.865543 180.413269,31.091864 180.413269,28.242092 
	C177.957901,28.242092 175.910889,28.242092 173.699493,28.242092 
	C173.699493,31.718559 173.837814,34.879433 173.625397,38.016556 
	C173.549744,39.133606 172.902878,40.764008 172.039841,41.186981 
	C166.006027,44.144135 159.847198,46.846176 153.130219,49.902016 
	C153.130219,43.202503 153.130219,37.416225 153.129822,30.660105 
M55.483440,75.007034 
	C65.717583,83.836121 78.058670,85.547623 88.705292,79.614357 
	C97.970055,74.451180 103.905319,62.789875 102.287361,53.026230 
	C92.703407,53.026230 83.135445,53.026230 73.573906,53.026230 
	C73.573906,55.157181 73.573906,56.918545 73.573906,59.173958 
	C80.856186,59.173958 87.901321,59.173958 94.983086,59.173958 
	C93.662918,70.542847 84.792839,77.056938 72.742447,75.964264 
	C63.875820,75.160278 56.689362,68.452477 55.112320,59.508381 
	C53.275002,49.088131 57.789207,39.490963 66.348816,35.619682 
	C75.101120,31.661245 86.000969,33.700260 91.200500,41.111244 
	C93.926292,44.996349 96.793900,45.361053 100.715378,44.497608 
	C98.095108,33.525337 84.256027,23.995235 68.958733,27.608463 
	C48.035603,32.550518 40.943722,56.767292 55.483440,75.007034 
M206.442001,54.160664 
	C212.413971,56.156746 218.440948,58.005123 224.338547,60.200966 
	C228.254150,61.658855 231.619446,64.022964 230.930420,68.959915 
	C230.269302,73.696724 226.730698,75.412071 222.498276,76.085220 
	C212.685913,77.645859 207.763123,74.890198 203.525085,65.646751 
	C201.537537,65.646751 199.641083,65.646751 197.670105,65.646751 
	C197.529312,71.035980 199.594727,75.029755 203.356750,78.187698 
	C210.389374,84.091049 224.500259,84.680977 232.030197,79.442657 
	C240.382172,73.632469 240.258286,61.764046 231.525772,56.523026 
	C228.165268,54.506142 224.232178,53.413662 220.508133,52.040619 
	C216.936798,50.723885 212.955017,50.141422 209.807602,48.184444 
	C207.638779,46.835938 205.155426,43.527103 205.405197,41.398598 
	C205.697037,38.911465 208.347992,35.718277 210.777924,34.640278 
	C219.812210,30.632368 227.866211,34.524525 230.799713,43.602440 
	C232.845917,43.602440 234.892136,43.602440 236.944641,43.602440 
	C236.495819,35.719288 233.290024,30.317291 226.428101,28.629595 
	C221.286316,27.364967 215.598465,27.303442 210.302811,27.942171 
	C203.857956,28.719509 199.368317,32.808315 198.221939,39.501232 
	C197.099106,46.056534 200.114487,50.731365 206.442001,54.160664 
M258.471863,34.281860 
	C261.582031,34.281860 264.692169,34.281860 268.160492,34.281860 
	C268.160492,50.414600 268.160492,65.988075 268.160492,81.774506 
	C270.581879,81.774506 272.630707,81.774506 275.205017,81.774506 
	C275.205017,65.868629 275.205017,50.184250 275.205017,34.096283 
	C281.463684,34.096283 287.202026,34.096283 293.005615,34.096283 
	C293.005615,31.911842 293.005615,30.147640 293.005615,28.175648 
	C278.628967,28.175648 264.428223,28.175648 250.241608,28.175648 
	C250.241608,30.319971 250.241608,32.209610 250.241608,34.281868 
	C252.868530,34.281868 255.182922,34.281868 258.471863,34.281860 
z"/>
<path fill="#0A0A0A" opacity="1.000000" stroke="none" 
	d="
M153.130020,31.145027 
	C153.130219,37.416225 153.130219,43.202503 153.130219,49.902016 
	C159.847198,46.846176 166.006027,44.144135 172.039841,41.186981 
	C172.902878,40.764008 173.549744,39.133606 173.625397,38.016556 
	C173.837814,34.879433 173.699493,31.718559 173.699493,28.242092 
	C175.910889,28.242092 177.957901,28.242092 180.413269,28.242092 
	C180.413269,31.091864 180.413269,33.865543 180.413269,37.458447 
	C183.352371,36.189140 185.667953,35.189114 188.183884,34.102562 
	C188.923279,35.691261 189.536224,37.008293 190.124466,38.272247 
	C189.792145,38.643181 189.611160,39.046593 189.357971,39.098606 
	C181.163315,40.782112 179.752304,46.198429 180.262939,53.707588 
	C180.892532,62.966099 180.413376,72.300003 180.413376,81.805283 
	C178.121002,81.805283 176.193100,81.805283 173.763077,81.805283 
	C173.763077,70.233940 173.763077,58.702538 173.763077,46.276569 
	C166.886032,49.374542 160.684479,52.006901 154.682495,55.034794 
	C153.710861,55.524963 153.225418,57.763893 153.197403,59.207710 
	C153.052811,66.661812 153.130280,74.120209 153.130280,81.792900 
	C150.847092,81.792900 148.915085,81.792900 146.526550,81.792900 
	C146.526550,74.413940 146.526550,66.998375 146.526550,58.602810 
	C139.723114,61.642696 133.600983,64.273293 127.610779,67.176155 
	C126.782852,67.577377 126.252335,69.308655 126.196381,70.454086 
	C126.018692,74.092201 126.130646,77.744461 126.130646,81.701935 
	C123.901611,81.701935 121.853241,81.701935 119.347031,81.701935 
	C119.347031,78.236656 119.347031,74.820633 119.347031,70.947311 
	C116.385933,72.176712 113.970490,73.179558 111.220634,74.321251 
	C110.524261,73.025116 109.859489,71.787819 109.234665,70.624863 
	C109.561546,70.184647 109.716408,69.738014 109.959015,69.683769 
	C118.694786,67.730385 120.163017,61.906189 119.462410,53.872620 
	C118.729996,45.474335 119.298798,36.962566 119.298798,28.138664 
	C121.571411,28.032825 123.503922,27.942825 125.971817,27.827890 
	C125.971817,39.160221 125.971817,50.345692 125.971817,62.210796 
	C132.520126,59.254391 138.457123,56.765823 144.167267,53.835205 
	C145.318771,53.244209 146.158417,50.994610 146.204727,49.481041 
	C146.417679,42.518772 146.298538,35.546349 146.298538,27.990377 
	C148.924667,28.829947 152.381775,25.495209 153.130020,31.145027 
z"/>
<path fill="#090909" opacity="1.000000" stroke="none" 
	d="
M55.245361,74.740295 
	C40.943722,56.767292 48.035603,32.550518 68.958733,27.608463 
	C84.256027,23.995235 98.095108,33.525337 100.715378,44.497608 
	C96.793900,45.361053 93.926292,44.996349 91.200500,41.111244 
	C86.000969,33.700260 75.101120,31.661245 66.348816,35.619682 
	C57.789207,39.490963 53.275002,49.088131 55.112320,59.508381 
	C56.689362,68.452477 63.875820,75.160278 72.742447,75.964264 
	C84.792839,77.056938 93.662918,70.542847 94.983086,59.173958 
	C87.901321,59.173958 80.856186,59.173958 73.573906,59.173958 
	C73.573906,56.918545 73.573906,55.157181 73.573906,53.026230 
	C83.135445,53.026230 92.703407,53.026230 102.287361,53.026230 
	C103.905319,62.789875 97.970055,74.451180 88.705292,79.614357 
	C78.058670,85.547623 65.717583,83.836121 55.245361,74.740295 
z"/>
<path fill="#0A0A0A" opacity="1.000000" stroke="none" 
	d="
M206.093964,54.030899 
	C200.114487,50.731365 197.099106,46.056534 198.221939,39.501232 
	C199.368317,32.808315 203.857956,28.719509 210.302811,27.942171 
	C215.598465,27.303442 221.286316,27.364967 226.428101,28.629595 
	C233.290024,30.317291 236.495819,35.719288 236.944641,43.602440 
	C234.892136,43.602440 232.845917,43.602440 230.795074,43.606697 
	C227.866211,34.524525 219.812210,30.632368 210.777924,34.640278 
	C208.347992,35.718277 205.697037,38.911465 205.405197,41.398598 
	C205.155426,43.527103 207.638779,46.835938 209.807602,48.184444 
	C212.955017,50.141422 216.936798,50.723885 220.508133,52.040619 
	C224.232178,53.413662 228.165268,54.506142 231.525772,56.523026 
	C240.258286,61.764046 240.382172,73.632469 232.030197,79.442657 
	C224.500259,84.680977 210.389374,84.091049 203.356750,78.187698 
	C199.594727,75.029755 197.529312,71.035980 197.670105,65.646751 
	C199.641083,65.646751 201.537537,65.646751 203.525085,65.646751 
	C207.763123,74.890198 212.685913,77.645859 222.498276,76.085220 
	C226.730698,75.412071 230.269302,73.696724 230.930420,68.959915 
	C231.619446,64.022964 228.254150,61.658855 224.338547,60.200966 
	C218.440948,58.005123 212.413971,56.156746 206.093964,54.030899 
z"/>
<path fill="#040404" opacity="1.000000" stroke="none" 
	d="
M257.984589,34.281864 
	C255.182922,34.281868 252.868530,34.281868 250.241608,34.281868 
	C250.241608,32.209610 250.241608,30.319971 250.241608,28.175648 
	C264.428223,28.175648 278.628967,28.175648 293.005615,28.175648 
	C293.005615,30.147640 293.005615,31.911842 293.005615,34.096283 
	C287.202026,34.096283 281.463684,34.096283 275.205017,34.096283 
	C275.205017,50.184250 275.205017,65.868629 275.205017,81.774506 
	C272.630707,81.774506 270.581879,81.774506 268.160492,81.774506 
	C268.160492,65.988075 268.160492,50.414600 268.160492,34.281860 
	C264.692169,34.281860 261.582031,34.281860 257.984589,34.281864 
z"/>
</svg>